<?xml version="1.0" ?><svg data-name="Social Media Icons" id="Social_Media_Icons" viewBox="0 0 512 512" xmlns="http://www.w3.org/2000/svg"><defs><style>.cls-1{fill:#00b241;}</style></defs><g id="Wechat"><path class="cls-1" d="M182.48,46.65C81.7,46.65,0,116.31,0,202.24c0,51,28.83,96.33,73.35,124.7L59.89,364.55a6.43,6.43,0,0,0,9,7.88L117,347.49a209.94,209.94,0,0,0,65.48,10.33c7.09,0,14.08-.36,21-1A113.32,113.32,0,0,1,196.19,317c0-72.18,68.58-130.7,153.18-130.7,5,0,9.86.21,14.69.6C355,108.15,277.17,46.65,182.48,46.65Zm-62.86,127.8a25.57,25.57,0,1,1,25.57-25.57A25.57,25.57,0,0,1,119.62,174.45Zm126.83,0A25.57,25.57,0,1,1,272,148.88,25.57,25.57,0,0,1,246.45,174.45Z"/><path class="cls-1" d="M512,324.29c0-72.18-68.59-130.69-153.18-130.69S205.63,252.11,205.63,324.29,274.21,455,358.82,455a175.63,175.63,0,0,0,57.54-9.54l35.49,19.1a6.43,6.43,0,0,0,9.13-7.74l-9.66-28.34C488.19,404.62,512,366.83,512,324.29Zm-201-20.5a21,21,0,1,1,21-21A21,21,0,0,1,311,303.79Zm101.32,0a21,21,0,1,1,21-21A21,21,0,0,1,412.27,303.79Z"/></g></svg>