<?xml version="1.0" standalone="no"?><!DOCTYPE svg PUBLIC "-//W3C//DTD SVG 1.1//EN" "http://www.w3.org/Graphics/SVG/1.1/DTD/svg11.dtd"><svg t="1779692489232" class="icon" viewBox="0 0 1024 1024" version="1.1" xmlns="http://www.w3.org/2000/svg" p-id="2908" xmlns:xlink="http://www.w3.org/1999/xlink" width="200" height="200"><path d="M811.87 2.28H212.16C96.73 2.28 2.28 96.58 2.28 211.86v402.75C135.17 692.5 311.8 740 505.66 740c200.09 0 381.85-50.6 516.09-133V211.86c0-115.28-94.42-209.58-209.88-209.58z m0 0" fill="#FD2821" p-id="2909"></path><path d="M505.67 742.26c-187.07 0-366.24-44.63-504.53-125.68L0 615.92V211.86C0.34 95 95.12 0.34 212.13 0h599.74c117 0.34 211.79 95 212.13 211.86v396.4l-1.14 0.68c-140 86-323.72 133.32-517.19 133.32zM4.56 613.31C142 693.53 320 737.71 505.67 737.71c192.18 0 374.62-46.86 513.81-132V211.86c-0.34-114.37-93.1-207-207.61-207.31H212.16C97.65 4.87 4.89 97.5 4.56 211.86z m0 0" fill="#C54953" p-id="2910"></path><path d="M2.28 614.61V812.4c0 115.13 94.31 209.32 209.59 209.32h600.29c115.28 0 209.6-94.19 209.6-209.32V607c-134.24 82.4-316 133-516.09 133-193.86 0-370.49-47.49-503.39-125.39z m0 0" fill="#FFFFFF" p-id="2911"></path><path d="M812.16 1024H211.88C95 1023.67 0.34 929.13 0 812.4V610.64l3.42 2c137.59 80.66 316 125.09 502.23 125.09 192.68 0 375.54-47.11 514.9-132.65L1024 603v209.4c-0.33 116.7-95 211.22-211.8 211.6zM4.56 618.58V812.4c0.33 114.22 93 206.72 207.32 207.05h600.28c114.36-0.33 207-92.84 207.32-207.05V611.05c-139.63 84.64-321.9 131.21-513.81 131.21-185.52 0-363.34-43.87-501.11-123.68z m0 0" fill="#C54953" p-id="2912"></path><path d="M113.59 190.06h202q19 0 19 19t-19 19h-202q-19 0-19-19t19-19z m0 0M424.53 254.71v162.15q0 19-19 19t-19-19V254.71q0-19 19-19t19 19z m0 0M793.06 282.51l52.76 52.68q13.41 13.41 0 26.81-13.42 13.4-26.82 0l-52.75-52.68q-13.43-13.41 0-26.81 13.41-13.41 26.84 0z m0 0M254.07 491.54h15.61l-12.9 67.86q-1.9 10.76 3 16.39 4.67 5.93 13.78 5.92a24.5 24.5 0 0 0 16.17-5.92q6.82-5.64 9.05-16.39l12.9-67.86h15.61L314 561.13q-3.42 16.61-15.53 26.35a43.59 43.59 0 0 1-28 10.23q-15.45-0.15-23.91-10.23-8.76-9.75-5.7-26.35z m82.35 30.32h14.8l-1.51 8h0.29a28.61 28.61 0 0 1 20.76-8.88 20.56 20.56 0 0 1 15.42 6.57q6.21 6.65 4.13 19.49l-9.47 49.81H366l8.49-44.61q1.49-7.87-1.83-12T363.1 536a16.79 16.79 0 0 0-11.26 4.19q-4.93 4.11-6.44 12l-8.48 44.61h-14.81z m73.86 0h14.8l-14.25 74.93H396z m5.72-30.32h14.81L428 506.63h-14.83z m14.28 67.71q2.28-11.84 5.37-18.19a34.31 34.31 0 0 1 8.06-10.47 36.7 36.7 0 0 1 9.74-6.71 34.57 34.57 0 0 1 14.34-3q8.66 0.15 13.49 3a20.11 20.11 0 0 1 6.92 6.71 19 19 0 0 1 4.22 10.47q0.56 6.35-1.7 18.19t-5.2 18a33.52 33.52 0 0 1-8.23 10.78 30.3 30.3 0 0 1-4.08 3.25 20.41 20.41 0 0 1-5.32 3.1 32.57 32.57 0 0 1-14.68 3.26q-8.37-0.15-13.15-3.26a21.12 21.12 0 0 1-7.26-6.35 23.27 23.27 0 0 1-4-10.76q-0.74-6.24 1.51-18.07z m45.67 0.15a69.8 69.8 0 0 0 1.52-11.69 11.61 11.61 0 0 0-1.72-6.21 8.29 8.29 0 0 0-4.06-4A13.82 13.82 0 0 0 465 536a17.93 17.93 0 0 0-7.21 1.51 17.34 17.34 0 0 0-5.69 4 22.33 22.33 0 0 0-3.94 6.21 62.38 62.38 0 0 0-3 11.55 55.17 55.17 0 0 0-1.32 11.38 16.07 16.07 0 0 0 1.52 6.49 13.54 13.54 0 0 0 4.21 3.83 13.37 13.37 0 0 0 6.61 1.59 16.87 16.87 0 0 0 7.37-1.59 18.1 18.1 0 0 0 5.53-3.83 19 19 0 0 0 4.14-6.49A70.56 70.56 0 0 0 476 559.4z m34-37.54h14.8l-1.51 8h0.28a28.66 28.66 0 0 1 20.68-8.9 20.48 20.48 0 0 1 15.42 6.57q6.22 6.63 4.13 19.49l-9.47 49.81h-14.8l8.52-44.65q1.49-7.87-1.82-12t-9.55-4.18a16.78 16.78 0 0 0-11.25 4.18q-4.95 4.13-6.45 12l-8.48 44.61h-14.8z m80.56-30.32h37.29a55.45 55.45 0 0 1 11.5 1.14 24.56 24.56 0 0 1 10.25 6.21 19.4 19.4 0 0 1 6 10.11 31.12 31.12 0 0 1 0.32 15q-2.28 11.68-12.11 21.3-10.19 10.11-26.18 10.39H594l-7.81 41.08h-15.62z m6.27 49.1H620q8.71-0.15 14.1-5.49a22.1 22.1 0 0 0 6.37-11.55 19.58 19.58 0 0 0 0-8.88 10 10 0 0 0-4-5.13 16.71 16.71 0 0 0-10.6-3h-22.55zM693 590.15h-0.28a16.3 16.3 0 0 1-7.42 5.69 32.53 32.53 0 0 1-12.09 1.87q-12.27-0.15-17.66-6.64-5.77-6.36-3.91-16.24a26.54 26.54 0 0 1 9.12-15.67q7.27-6.35 19-6.49h20.42l1.49-7.87q2-9.9-13.22-9.6a28.27 28.27 0 0 0-8.91 1.14 14 14 0 0 0-6.1 4.61l-9.87-9q10.55-11.25 26.89-11 13.86-0.15 21.08 5.34t4.73 19.34l-9.74 51.17h-14.8z m4.86-25.15H680.2q-12.91 0.29-14.43 9a6.72 6.72 0 0 0 2.09 6.49q2.63 3 10 3c6.15 0.09 10.65-0.66 13.5-2.28q3.91-2.37 5.52-10.82z m27.75-43.17h15.66l7.39 52.48h0.28l27.33-52.48H792l-48.91 90.47q-4.64 8.46-10.62 11.69a27.85 27.85 0 0 1-12.84 3.12h-4.87l2.71-14.22h4.3a11.13 11.13 0 0 0 10.09-6.5l6.41-12.51z m0 0M721.29 181.8q16.94 0 16.94 16.93v220.39q0 16.92-16.94 16.92t-16.95-16.92V198.73q0-16.92 16.95-16.93z m0 0" fill="#FFFFFF" p-id="2913"></path><path d="M737.18 179.92a19.06 19.06 0 0 0-26.84 0.35l-74 75.9v-44.82a18.71 18.71 0 0 0-1.31-6.82 19 19 0 0 0-18.47-14.68H439.43l-8.85-8.59a19 19 0 1 0-26.48 27.15l14.33 14a19 19 0 0 0 13.67 5.33c0.47 0 0.93 0.07 1.41 0.07h164.86v67.33l-15.06 15.43-52.22-52.15a19.28 19.28 0 0 0-3.61-2.8 19.05 19.05 0 0 0-26.5 0.31l-66 65.87a19 19 0 0 0 26.84 26.8l52.94-52.87 53.67 53.59a18.83 18.83 0 0 0 6.93 4.38 19.08 19.08 0 0 0 22.39-3.56l0.63-0.65v45.24a2.93 2.93 0 0 1-2.28 3.22l-19.59 0.25a19 19 0 1 0 0.49 37.91l37.58-0.49a8.07 8.07 0 0 0 1.47-0.09 6.31 6.31 0 0 1 1.32 0.07 19 19 0 0 0 19-19V310.49l101.18-103.78a19 19 0 0 0-0.37-26.79z m199.07 40.84h-15.82v-26.5a19 19 0 0 0-38 0v26.5H776.57a18.93 18.93 0 1 0 0 37.86h105.89v139.55a2.16 2.16 0 0 1 0 0.36v0.24a2.91 2.91 0 0 1-2.27 2.64h-25a19 19 0 1 0 0 37.91h46a22.75 22.75 0 0 0 19.36-22.09V258.62h15.83a18.93 18.93 0 1 0-0.1-37.86zM172.4 320.5a18.4 18.4 0 0 0 1.14-4.55h160.19a19 19 0 1 0 0-37.9H96.89a19 19 0 1 0 0 37.9h36.58l-34.9 90.69a19 19 0 0 0 7.21 22.56 19 19 0 0 0 14.34 6.59h201.33a18.93 18.93 0 0 0 4.25-0.51 18.74 18.74 0 0 0 7-1 19 19 0 0 0 11.63-24.17l-20.5-58.35A19 19 0 0 0 288 364.34l10.7 30.46a2.93 2.93 0 0 1-2.28 3.11H146.67a2.9 2.9 0 0 1-2.51-4z m0 0" fill="#FFFFFF" p-id="2914"></path><path d="M588.51 359.72l150.2-154.19 1.63 1.58-150.2 154.2zM492 275.2l1.62-1.6 95.21 96-1.62 1.61z m0 0" fill="#FF2217" p-id="2915"></path><path d="M657.46 783.55H515.75L475.08 974.6h137c6.47 0 13.22-6.14 15-13.65L666 797.2c1.79-7.51-2.05-13.65-8.52-13.65z m0 0" fill="#066B6A" p-id="2916"></path><path d="M557.21 783.55H413c-6.47 0-13.22 6.14-15 13.65L359.13 961c-1.78 7.51 2.05 13.65 8.52 13.65h148.89z m0 0" fill="#0A2F69" p-id="2917"></path><path d="M476.32 783.55H413c-6.47 0-13.22 6.14-15 13.65L359.13 961c-1.78 7.51 2.05 13.65 8.52 13.65h68z m0 0" fill="#E41D21" p-id="2918"></path><path d="M436.11 975.17h-68.47a9 9 0 0 1-7.22-3.41c-2.17-2.76-2.85-6.74-1.85-10.94l38.88-163.76c1.84-7.77 8.83-14.06 15.55-14.06h64zM413 784.12c-6.24 0-12.71 5.92-14.44 13.21l-38.88 163.75c-0.92 3.87-0.32 7.5 1.64 10a7.88 7.88 0 0 0 6.32 3h67.54l40.43-189.91z m0 0" fill="#C54953" p-id="2919"></path></svg>